Coordinates
version=1
nRows=8
nColumns=36
inDegrees=yes

Units are S.I. units (second, meters, Newtons, ...)
If the header above contains a line with 'inDegrees', this indicates whether rotational values are in degrees (yes) or radians (no).

endheader
time	pelvis_tilt	pelvis_list	pelvis_rotation	pelvis_tx	pelvis_ty	pelvis_tz	hip_flexion_r	hip_adduction_r	hip_rotation_r	knee_angle_r	knee_angle_r_beta	ankle_angle_r	subtalar_angle_r	mtp_angle_r	hip_flexion_l	hip_adduction_l	hip_rotation_l	knee_angle_l	knee_angle_l_beta	ankle_angle_l	subtalar_angle_l	mtp_angle_l	lumbar_extension	lumbar_bending	lumbar_rotation	arm_flex_r	arm_add_r	arm_rot_r	elbow_flex_r	pro_sup_r	arm_flex_l	arm_add_l	arm_rot_l	elbow_flex_l	pro_sup_l
      8.23333330	      1.94553967	     -1.67940200	     -3.02864451	     -0.15354810	      0.69558369	     -0.04031502	     68.17189472	     -8.71078120	      8.67694202	     89.03759108	      1.55399912	     27.67138272	      1.72982725	     -7.49999987	     72.25281373	    -14.94646512	      3.23258755	     91.91974589	      1.60430221	     21.95014981	      5.05787590	     -7.49999987	    -25.18408455	     -1.20755299	      8.21140086	     -3.71071464	    -14.91334459	      4.31904187	     75.54439608	     91.03877964	     12.74248883	    -12.79751473	     11.37372458	     62.51459584	     73.75241314
      8.25000000	      2.15160173	     -1.73787577	     -3.12031342	     -0.15416409	      0.69611085	     -0.04055363	     68.13344235	     -8.73993519	      8.54457103	     89.14853845	      1.55593552	     27.63486269	      1.53855909	     -7.49999987	     72.21566392	    -15.09546350	      3.23418899	     92.09025481	      1.60727816	     21.73140931	      4.78457781	     -7.49999987	    -25.25108073	     -1.27106649	      8.10518851	     -3.81780398	    -14.86347106	      4.31254389	     75.42719256	     90.35828181	     12.77699887	    -12.91743891	     11.24181953	     62.69438146	     73.42646038
      8.26666670	      2.26641536	     -1.89851907	     -3.41437800	     -0.15410681	      0.69644728	     -0.04035721	     68.00352587	     -8.58267551	      8.29690887	     89.16583297	      1.55623737	     27.96550273	      2.18793543	     -7.49999987	     72.16021105	    -15.51363000	      3.25979027	     92.24139010	      1.60991596	     21.91930499	      5.31309047	     -7.49999987	    -25.05081327	     -1.28440014	      8.33285383	     -3.96962122	    -15.01129276	      4.22197761	     74.95547979	     90.33687660	     12.47772525	    -12.98492230	     11.01417610	     62.39387394	     73.36776481
      8.28333330	      2.34287746	     -2.07232728	     -3.51953796	     -0.15475130	      0.69688285	     -0.04054255	     67.92004264	     -8.58272003	      8.01072990	     89.23670658	      1.55747434	     28.00698967	      2.26283201	     -7.49999987	     72.17042750	    -15.70309083	      3.36756962	     92.36472351	      1.61206854	     21.95940130	      5.51614851	     -7.49999987	    -24.94993636	     -1.19837687	      8.39894110	     -3.66237279	    -15.24959498	      3.98786461	     74.54654165	     90.06968019	     12.43027598	    -12.94266200	     10.65436066	     61.67241383	     73.40293056
      8.30000000	      2.38706439	     -2.17435404	     -3.53376541	     -0.15480532	      0.69715948	     -0.04054291	     67.76436983	     -8.67043266	      7.76379728	     89.21259212	      1.55705347	     28.12529407	      2.32590067	     -7.49999987	     72.09693431	    -15.79003374	      3.44060885	     92.33179786	      1.61149388	     21.82654465	      5.48252882	     -7.49999987	    -24.92988703	     -1.18522143	      8.84970708	     -4.01535751	    -15.33117877	      2.49964125	     75.11367887	     94.37410147	     12.19035035	    -12.96172355	     10.20876277	     61.12371095	     78.91808199
      8.31666670	      2.38987257	     -2.24054724	     -3.63985540	     -0.15519929	      0.69747134	     -0.04072532	     67.66496447	     -8.76626215	      7.50995621	     89.08800672	      1.55487904	     28.20030304	      2.60714489	     -7.49999987	     72.06111244	    -15.91065989	      3.46907739	     92.28415208	      1.61066230	     21.92311939	      5.67461910	     -7.49999987	    -24.83555858	     -1.20198015	      8.86146817	     -4.07179622	    -15.57763698	      2.29328273	     75.01448442	     94.12274865	     11.68041964	    -13.13487654	      9.73387087	     60.94395399	     78.70457084
      8.33333330	      2.52895393	     -2.28241733	     -3.66757546	     -0.15504203	      0.69763877	     -0.04070902	     67.53990667	     -8.88246147	      7.30167599	     89.03092520	      1.55388278	     28.09844874	      2.51042081	     -7.49999987	     71.94388937	    -16.01602787	      3.41263100	     92.26116879	      1.61026117	     21.74861093	      5.56472773	     -7.49999987	    -24.82668120	     -1.26393091	      8.80625356	     -4.10454580	    -15.72841916	      2.10909264	     74.83110011	     93.57629880	     11.32345271	    -13.32906027	      9.41877881	     60.94260545	     78.40239018
      8.35000000	      2.52200638	     -2.34332216	     -3.83492992	     -0.15582500	      0.69766079	     -0.04071334	     67.59961585	     -9.01019324	      7.06966276	     88.97934672	      1.55298257	     28.37014220	      3.27759355	     -7.49999987	     71.91916072	    -16.31161938	      3.29912474	     92.28516219	      1.61067993	     21.78391245	      6.05416442	     -7.49999987	    -24.75733581	     -1.33219470	      8.78602229	     -3.80117866	    -15.94646508	      1.86825254	     74.67150425	     92.99545032	     11.03249556	    -13.34051336	      8.79638886	     60.96195304	     77.75145315
